<?xml version="1.0" encoding="utf-8"?>
<!-- Generator: Adobe Illustrator 21.0.0, SVG Export Plug-In . SVG Version: 6.00 Build 0)  -->
<svg version="1.1" id="Layer_1" xmlns="http://www.w3.org/2000/svg" xmlns:xlink="http://www.w3.org/1999/xlink" x="0px" y="0px"
	 viewBox="0 0 600 600" style="enable-background:new 0 0 600 600;" xml:space="preserve">
<style type="text/css">
	.st0{clip-path:url(#SVGID_2_);fill:#314E55;}
	.st1{fill:#EAEAEA;}
	.st2{fill:#D50000;}
	.st3{fill:#2962FF;}
	.st4{fill:#FFFFFF;}
</style>
<g>
	<g>
		<defs>
			<rect id="SVGID_1_" x="95" y="171" width="409.9" height="259"/>
		</defs>
		<clipPath id="SVGID_2_">
			<use xlink:href="#SVGID_1_"  style="overflow:visible;"/>
		</clipPath>
		<path class="st0" d="M504.3,277.2c-0.1-1.1-0.3-2.2-0.9-3.2l-53.2-97.9c-1.4-2.5-4-4.1-6.9-4.1h-35.2c-2.3,0-4.6,1-6.1,2.9
			c-1.5,1.8-2.1,4.2-1.7,6.5l16.9,89.4H182.1l16.9-89.4c0.4-2.3-0.2-4.7-1.7-6.5c-1.5-1.8-3.7-2.9-6.1-2.9h-35.2
			c-2.9,0-5.5,1.6-6.9,4.1L96,274c-0.7,1.3-1,2.8-0.9,4.3c0,0.1-0.1,0.2-0.1,0.3V410c0,3.1,1.8,5.8,4.5,7.1
			c1.3,0.6,25.8,11.9,67.8,11.9c10.6,0,22.4-0.7,35.1-2.5c50.9-7.2,85.3-27.2,97.4-35.2c12.1,8,46.5,28,97.4,35.2
			c12.8,1.8,24.5,2.5,35.1,2.5c42,0,66.5-11.3,67.8-11.9c2.8-1.3,4.5-4.1,4.5-7.1V278.6C504.6,278.1,504.4,277.6,504.3,277.2
			L504.3,277.2z M504.3,277.2"/>
	</g>
	<path class="st1" d="M438.6,187.7l44.7,82.1h-50.1l-15.5-82.1H438.6z M438.6,187.7"/>
	<path class="st1" d="M160.8,187.7h21l-15.5,82.1h-50.1L160.8,187.7z M160.8,187.7"/>
	<path class="st2" d="M200.2,410.9c-46.3,6.5-78.2-2.3-89.5-6.3V286.4h181.2v91.2C282.1,384.2,249.2,404,200.2,410.9L200.2,410.9z
		 M200.2,410.9"/>
	<path class="st3" d="M488.8,404.6c-11.3,4-43.2,12.8-89.5,6.3c-48.8-6.9-81.8-26.7-91.7-33.3v-91.2h181.2V404.6z M488.8,404.6"/>
	<path class="st4" d="M160.3,303.7l-31.5,31.5c-3.1,3.1-3.1,8.1,0,11.1c1.5,1.5,3.6,2.3,5.6,2.3c2,0,4-0.8,5.6-2.3l31.5-31.5
		c3.1-3.1,3.1-8.1,0-11.1C168.4,300.6,163.4,300.6,160.3,303.7L160.3,303.7z M160.3,303.7"/>
	<path class="st4" d="M459.6,346.3c1.5,1.5,3.6,2.3,5.6,2.3c2,0,4-0.8,5.6-2.3c3.1-3.1,3.1-8.1,0-11.1l-31.5-31.5
		c-3.1-3.1-8.1-3.1-11.1,0c-3.1,3.1-3.1,8.1,0,11.1L459.6,346.3z M459.6,346.3"/>
</g>
</svg>
